<svg xmlns="http://www.w3.org/2000/svg" version="1.1" xmlns:xlink="http://www.w3.org/1999/xlink"
    xmlns:svgjs="http://svgjs.com/svgjs" width="1440" height="560" preserveAspectRatio="none" viewBox="0 0 1440 560">
    <g mask="url(&quot;#SvgjsMask1008&quot;)" fill="none">
        <rect width="1440" height="560" x="0" y="0" fill="#0e2a47"></rect>
        <use xlink:href="#SvgjsSymbol1015" x="0" y="0"></use>
        <use xlink:href="#SvgjsSymbol1015" x="720" y="0"></use>
    </g>
    <defs>
        <mask id="SvgjsMask1008">
            <rect width="1440" height="560" fill="#ffffff"></rect>
        </mask>
        <path d="M-1 0 a1 1 0 1 0 2 0 a1 1 0 1 0 -2 0z" id="SvgjsPath1012"></path>
        <path d="M-3 0 a3 3 0 1 0 6 0 a3 3 0 1 0 -6 0z" id="SvgjsPath1013"></path>
        <path d="M-5 0 a5 5 0 1 0 10 0 a5 5 0 1 0 -10 0z" id="SvgjsPath1010"></path>
        <path d="M2 -2 L-2 2z" id="SvgjsPath1011"></path>
        <path d="M6 -6 L-6 6z" id="SvgjsPath1009"></path>
        <path d="M30 -30 L-30 30z" id="SvgjsPath1014"></path>
    </defs>
    <symbol id="SvgjsSymbol1015">
        <use xlink:href="#SvgjsPath1009" x="30" y="30" stroke="#1c538e"></use>
        <use xlink:href="#SvgjsPath1010" x="30" y="90" stroke="#1c538e"></use>
        <use xlink:href="#SvgjsPath1011" x="30" y="150" stroke="#1c538e"></use>
        <use xlink:href="#SvgjsPath1009" x="30" y="210" stroke="#1c538e"></use>
        <use xlink:href="#SvgjsPath1010" x="30" y="270" stroke="#1c538e"></use>
        <use xlink:href="#SvgjsPath1011" x="30" y="330" stroke="#1c538e"></use>
        <use xlink:href="#SvgjsPath1012" x="30" y="390" stroke="#1c538e"></use>
        <use xlink:href="#SvgjsPath1010" x="30" y="450" stroke="#1c538e"></use>
        <use xlink:href="#SvgjsPath1013" x="30" y="510" stroke="#1c538e"></use>
        <use xlink:href="#SvgjsPath1010" x="30" y="570" stroke="#1c538e"></use>
        <use xlink:href="#SvgjsPath1013" x="90" y="30" stroke="#1c538e"></use>
        <use xlink:href="#SvgjsPath1009" x="90" y="90" stroke="#1c538e"></use>
        <use xlink:href="#SvgjsPath1011" x="90" y="150" stroke="#1c538e"></use>
        <use xlink:href="#SvgjsPath1014" x="90" y="210" stroke="#1c538e" stroke-width="3"></use>
        <use xlink:href="#SvgjsPath1011" x="90" y="270" stroke="#1c538e"></use>
        <use xlink:href="#SvgjsPath1009" x="90" y="330" stroke="#1c538e"></use>
        <use xlink:href="#SvgjsPath1011" x="90" y="390" stroke="#1c538e"></use>
        <use xlink:href="#SvgjsPath1014" x="90" y="450" stroke="#1c538e" stroke-width="3"></use>
        <use xlink:href="#SvgjsPath1013" x="90" y="510" stroke="#1c538e"></use>
        <use xlink:href="#SvgjsPath1009" x="90" y="570" stroke="#1c538e"></use>
        <use xlink:href="#SvgjsPath1010" x="150" y="30" stroke="#1c538e"></use>
        <use xlink:href="#SvgjsPath1009" x="150" y="90" stroke="#1c538e"></use>
        <use xlink:href="#SvgjsPath1011" x="150" y="150" stroke="#1c538e"></use>
        <use xlink:href="#SvgjsPath1011" x="150" y="210" stroke="#1c538e"></use>
        <use xlink:href="#SvgjsPath1013" x="150" y="270" stroke="#1c538e"></use>
        <use xlink:href="#SvgjsPath1013" x="150" y="330" stroke="#1c538e"></use>
        <use xlink:href="#SvgjsPath1010" x="150" y="390" stroke="#1c538e"></use>
        <use xlink:href="#SvgjsPath1010" x="150" y="450" stroke="#1c538e"></use>
        <use xlink:href="#SvgjsPath1010" x="150" y="510" stroke="#1c538e"></use>
        <use xlink:href="#SvgjsPath1010" x="150" y="570" stroke="#1c538e"></use>
        <use xlink:href="#SvgjsPath1011" x="210" y="30" stroke="#1c538e"></use>
        <use xlink:href="#SvgjsPath1012" x="210" y="90" stroke="#1c538e"></use>
        <use xlink:href="#SvgjsPath1009" x="210" y="150" stroke="#1c538e"></use>
        <use xlink:href="#SvgjsPath1010" x="210" y="210" stroke="#1c538e"></use>
        <use xlink:href="#SvgjsPath1010" x="210" y="270" stroke="#1c538e"></use>
        <use xlink:href="#SvgjsPath1013" x="210" y="330" stroke="#1c538e"></use>
        <use xlink:href="#SvgjsPath1014" x="210" y="390" stroke="#1c538e" stroke-width="3"></use>
        <use xlink:href="#SvgjsPath1010" x="210" y="450" stroke="#1c538e"></use>
        <use xlink:href="#SvgjsPath1013" x="210" y="510" stroke="#1c538e"></use>
        <use xlink:href="#SvgjsPath1014" x="210" y="570" stroke="#1c538e" stroke-width="3"></use>
        <use xlink:href="#SvgjsPath1010" x="270" y="30" stroke="#1c538e"></use>
        <use xlink:href="#SvgjsPath1010" x="270" y="90" stroke="#1c538e"></use>
        <use xlink:href="#SvgjsPath1013" x="270" y="150" stroke="#1c538e"></use>
        <use xlink:href="#SvgjsPath1010" x="270" y="210" stroke="#1c538e"></use>
        <use xlink:href="#SvgjsPath1010" x="270" y="270" stroke="#1c538e"></use>
        <use xlink:href="#SvgjsPath1009" x="270" y="330" stroke="#1c538e"></use>
        <use xlink:href="#SvgjsPath1010" x="270" y="390" stroke="#1c538e"></use>
        <use xlink:href="#SvgjsPath1009" x="270" y="450" stroke="#1c538e"></use>
        <use xlink:href="#SvgjsPath1012" x="270" y="510" stroke="#1c538e"></use>
        <use xlink:href="#SvgjsPath1012" x="270" y="570" stroke="#1c538e"></use>
        <use xlink:href="#SvgjsPath1014" x="330" y="30" stroke="#1c538e" stroke-width="3"></use>
        <use xlink:href="#SvgjsPath1010" x="330" y="90" stroke="#1c538e"></use>
        <use xlink:href="#SvgjsPath1013" x="330" y="150" stroke="#1c538e"></use>
        <use xlink:href="#SvgjsPath1010" x="330" y="210" stroke="#1c538e"></use>
        <use xlink:href="#SvgjsPath1010" x="330" y="270" stroke="#1c538e"></use>
        <use xlink:href="#SvgjsPath1012" x="330" y="330" stroke="#1c538e"></use>
        <use xlink:href="#SvgjsPath1012" x="330" y="390" stroke="#1c538e"></use>
        <use xlink:href="#SvgjsPath1012" x="330" y="450" stroke="#1c538e"></use>
        <use xlink:href="#SvgjsPath1013" x="330" y="510" stroke="#1c538e"></use>
        <use xlink:href="#SvgjsPath1009" x="330" y="570" stroke="#1c538e"></use>
        <use xlink:href="#SvgjsPath1010" x="390" y="30" stroke="#1c538e"></use>
        <use xlink:href="#SvgjsPath1010" x="390" y="90" stroke="#1c538e"></use>
        <use xlink:href="#SvgjsPath1011" x="390" y="150" stroke="#1c538e"></use>
        <use xlink:href="#SvgjsPath1009" x="390" y="210" stroke="#1c538e"></use>
        <use xlink:href="#SvgjsPath1010" x="390" y="270" stroke="#1c538e"></use>
        <use xlink:href="#SvgjsPath1014" x="390" y="330" stroke="#1c538e" stroke-width="3"></use>
        <use xlink:href="#SvgjsPath1011" x="390" y="390" stroke="#1c538e"></use>
        <use xlink:href="#SvgjsPath1012" x="390" y="450" stroke="#1c538e"></use>
        <use xlink:href="#SvgjsPath1011" x="390" y="510" stroke="#1c538e"></use>
        <use xlink:href="#SvgjsPath1010" x="390" y="570" stroke="#1c538e"></use>
        <use xlink:href="#SvgjsPath1013" x="450" y="30" stroke="#1c538e"></use>
        <use xlink:href="#SvgjsPath1009" x="450" y="90" stroke="#1c538e"></use>
        <use xlink:href="#SvgjsPath1011" x="450" y="150" stroke="#1c538e"></use>
        <use xlink:href="#SvgjsPath1009" x="450" y="210" stroke="#1c538e"></use>
        <use xlink:href="#SvgjsPath1009" x="450" y="270" stroke="#1c538e"></use>
        <use xlink:href="#SvgjsPath1009" x="450" y="330" stroke="#1c538e"></use>
        <use xlink:href="#SvgjsPath1011" x="450" y="390" stroke="#1c538e"></use>
        <use xlink:href="#SvgjsPath1009" x="450" y="450" stroke="#1c538e"></use>
        <use xlink:href="#SvgjsPath1012" x="450" y="510" stroke="#1c538e"></use>
        <use xlink:href="#SvgjsPath1009" x="450" y="570" stroke="#1c538e"></use>
        <use xlink:href="#SvgjsPath1011" x="510" y="30" stroke="#1c538e"></use>
        <use xlink:href="#SvgjsPath1009" x="510" y="90" stroke="#1c538e"></use>
        <use xlink:href="#SvgjsPath1009" x="510" y="150" stroke="#1c538e"></use>
        <use xlink:href="#SvgjsPath1010" x="510" y="210" stroke="#1c538e"></use>
        <use xlink:href="#SvgjsPath1013" x="510" y="270" stroke="#1c538e"></use>
        <use xlink:href="#SvgjsPath1009" x="510" y="330" stroke="#1c538e"></use>
        <use xlink:href="#SvgjsPath1012" x="510" y="390" stroke="#1c538e"></use>
        <use xlink:href="#SvgjsPath1009" x="510" y="450" stroke="#1c538e"></use>
        <use xlink:href="#SvgjsPath1012" x="510" y="510" stroke="#1c538e"></use>
        <use xlink:href="#SvgjsPath1010" x="510" y="570" stroke="#1c538e"></use>
        <use xlink:href="#SvgjsPath1010" x="570" y="30" stroke="#1c538e"></use>
        <use xlink:href="#SvgjsPath1010" x="570" y="90" stroke="#1c538e"></use>
        <use xlink:href="#SvgjsPath1010" x="570" y="150" stroke="#1c538e"></use>
        <use xlink:href="#SvgjsPath1010" x="570" y="210" stroke="#1c538e"></use>
        <use xlink:href="#SvgjsPath1009" x="570" y="270" stroke="#1c538e"></use>
        <use xlink:href="#SvgjsPath1009" x="570" y="330" stroke="#1c538e"></use>
        <use xlink:href="#SvgjsPath1011" x="570" y="390" stroke="#1c538e"></use>
        <use xlink:href="#SvgjsPath1009" x="570" y="450" stroke="#1c538e"></use>
        <use xlink:href="#SvgjsPath1012" x="570" y="510" stroke="#1c538e"></use>
        <use xlink:href="#SvgjsPath1010" x="570" y="570" stroke="#1c538e"></use>
        <use xlink:href="#SvgjsPath1011" x="630" y="30" stroke="#1c538e"></use>
        <use xlink:href="#SvgjsPath1013" x="630" y="90" stroke="#1c538e"></use>
        <use xlink:href="#SvgjsPath1010" x="630" y="150" stroke="#1c538e"></use>
        <use xlink:href="#SvgjsPath1010" x="630" y="210" stroke="#1c538e"></use>
        <use xlink:href="#SvgjsPath1010" x="630" y="270" stroke="#1c538e"></use>
        <use xlink:href="#SvgjsPath1013" x="630" y="330" stroke="#1c538e"></use>
        <use xlink:href="#SvgjsPath1009" x="630" y="390" stroke="#1c538e"></use>
        <use xlink:href="#SvgjsPath1012" x="630" y="450" stroke="#1c538e"></use>
        <use xlink:href="#SvgjsPath1011" x="630" y="510" stroke="#1c538e"></use>
        <use xlink:href="#SvgjsPath1009" x="630" y="570" stroke="#1c538e"></use>
        <use xlink:href="#SvgjsPath1011" x="690" y="30" stroke="#1c538e"></use>
        <use xlink:href="#SvgjsPath1010" x="690" y="90" stroke="#1c538e"></use>
        <use xlink:href="#SvgjsPath1009" x="690" y="150" stroke="#1c538e"></use>
        <use xlink:href="#SvgjsPath1012" x="690" y="210" stroke="#1c538e"></use>
        <use xlink:href="#SvgjsPath1013" x="690" y="270" stroke="#1c538e"></use>
        <use xlink:href="#SvgjsPath1009" x="690" y="330" stroke="#1c538e"></use>
        <use xlink:href="#SvgjsPath1009" x="690" y="390" stroke="#1c538e"></use>
        <use xlink:href="#SvgjsPath1010" x="690" y="450" stroke="#1c538e"></use>
        <use xlink:href="#SvgjsPath1010" x="690" y="510" stroke="#1c538e"></use>
        <use xlink:href="#SvgjsPath1010" x="690" y="570" stroke="#1c538e"></use>
    </symbol>
</svg>